# xmcd
#
# Track frame offsets:
#	182
#	18875
#	36570
#	51457
#	66182
#	86885
#	106020
#	126760
#	143660
#	171525
#	190967
#	208157
#
# Disc length: 2987 seconds
#
# Revision: 13
# Processed by: cddbd v1.5.2PL0 Copyright (c) Steve Scherf et al.
# Submitted via: EasyCDDAExtractor 15.3.0.1
#
DISCID=b40ba90c
DTITLE=Luis Miguel - Amarte Es Un Placer
DYEAR=1999
DGENRE=Latin
TTITLE0=Tu Mirada
TTITLE1=Soy Yo
TTITLE2=Sol, Arena Y Mar
TTITLE3=O Tu O Ninguna
TTITLE4=Quiero
TTITLE5=Dormir Contigo
TTITLE6=Dimelo En Un Beso
TTITLE7=No Me Fio
TTITLE8=Te Propongo Esta Noche
TTITLE9=Tu Solo Tu
TTITLE10=Ese Momento
TTITLE11=Amarte Es Un Placer
EXTD=
EXTT0=
EXTT1=
EXTT2=
EXTT3=
EXTT4=
EXTT5=
EXTT6=
EXTT7=
EXTT8=
EXTT9=
EXTT10=
EXTT11=
PLAYORDER=
